<svg width="384" height="412" viewBox="0 0 384 412" fill="none" xmlns="http://www.w3.org/2000/svg">
<g clip-path="url(#clip0_1564_5549)">
<path d="M460.738 429.167L457.55 143.838C457.55 143.838 410.962 92.7222 376.001 144.752C342.983 193.895 350.045 241.766 303.151 267.376C256.259 292.986 218.9 249.895 182.476 324.082C149.258 391.749 32.8775 354.695 29.0897 434.004L460.738 429.167Z" fill="#BED731"/>
<path d="M279.358 375.757C253.618 376.739 229.341 381.646 206.582 393.665C199.952 397.168 189.329 406.644 178.481 413.129C215.032 417.359 251.669 442.231 286.49 451.022C330.845 462.216 404.316 467.732 441.239 445.555C404.141 409.138 336.821 373.564 279.358 375.757Z" fill="#72C079"/>
<g style="mix-blend-mode:multiply">
<path d="M279.358 375.757C253.618 376.739 229.341 381.646 206.582 393.665C199.952 397.168 189.329 406.644 178.481 413.129C215.032 417.359 251.669 442.231 286.49 451.022C330.845 462.216 404.316 467.732 441.239 445.555C404.141 409.138 336.821 373.564 279.358 375.757Z" fill="url(#paint0_linear_1564_5549)"/>
</g>
<path d="M218.9 400.061C219.627 396.845 221.066 394.154 223.146 392.095C225.221 390.001 227.933 388.669 231.125 388.113C231.125 388.113 230.085 388.032 228.525 387.916C226.969 387.772 224.885 387.673 222.8 387.606C220.716 387.525 218.636 387.445 217.072 387.386C216.292 387.346 215.642 387.35 215.184 387.355C214.727 387.355 214.467 387.355 214.467 387.355C213.71 390.696 212.217 393.508 210.159 395.661C209.128 396.737 207.958 397.648 206.654 398.374C205.363 399.15 203.951 399.791 202.409 400.217C202.848 396.948 204.041 394.132 205.937 391.885C207.837 389.705 210.437 388.189 213.584 387.359C213.584 387.359 211.262 387.373 208.94 387.382C207.779 387.395 206.618 387.373 205.748 387.418C204.879 387.467 204.301 387.498 204.301 387.498C201.53 389.481 198.63 390.454 195.676 390.683C192.735 390.992 189.71 390.382 186.608 388.862C189.145 386.678 192.108 385.368 195.16 384.978C198.218 384.669 201.36 385.449 204.283 387.063C204.283 387.063 204.574 387.045 205.08 387.019C205.587 386.983 206.313 386.942 207.183 386.956C208.927 386.947 211.249 386.933 213.571 386.924C215.893 386.871 218.215 386.992 219.954 387.059C221.693 387.126 222.854 387.171 222.854 387.171C219.748 386.265 217.148 384.57 215.117 382.449C213.086 380.323 211.625 377.587 210.899 374.349C212.683 374.685 214.319 375.219 215.776 375.937C217.233 376.668 218.502 377.654 219.591 378.757C221.765 380.982 223.177 383.843 223.737 387.207C223.737 387.207 224.782 387.247 226.346 387.315C227.906 387.431 229.991 387.593 232.07 387.75C236.239 388.01 240.386 388.517 240.386 388.517C238.866 387.947 237.485 387.207 236.248 386.323C235.011 385.476 233.917 384.476 232.98 383.336C231.111 381.054 229.865 378.206 229.385 374.918C232.841 375.883 235.661 377.542 237.674 379.892C239.682 382.26 240.91 385.211 241.264 388.611C241.264 388.611 242.3 388.723 243.86 388.893C245.42 389.041 247.486 389.333 249.553 389.615C251.619 389.898 253.69 390.18 255.241 390.396C256.788 390.647 257.819 390.813 257.819 390.813C251.875 388.238 248.186 383.292 247.607 376.645C250.974 377.802 253.668 379.659 255.55 382.081C257.433 384.512 258.5 387.552 258.688 390.956C258.688 390.956 259.719 391.122 261.266 391.373C262.812 391.611 264.87 391.961 266.923 392.356C268.976 392.737 271.029 393.118 272.567 393.4C274.1 393.714 275.122 393.925 275.122 393.925C269.29 391.104 265.852 385.96 265.587 379.323C272.199 381.892 275.924 387.252 275.991 394.105C275.991 394.105 277.726 394.463 280.331 395.002C282.926 395.589 286.396 396.325 289.838 397.172C293.29 397.984 296.724 398.872 299.292 399.567C301.861 400.253 303.564 400.756 303.564 400.756L303.439 401.173C303.439 401.173 298.629 399.782 293.765 398.585C291.34 397.962 288.897 397.41 287.072 396.961C285.239 396.549 284.02 396.271 284.02 396.271C282.581 399.37 280.514 401.783 277.995 403.415C275.467 405.088 272.481 405.967 269.155 406.016C271.634 399.908 276.664 396.28 283.155 396.078C283.155 396.078 279.089 395.159 274.996 394.347C272.957 393.916 270.908 393.531 269.366 393.253C267.828 392.97 266.802 392.782 266.802 392.782C264.18 399.065 258.998 402.783 252.39 403.16C254.591 396.926 259.446 393.127 265.932 392.62C265.932 392.62 264.906 392.436 263.368 392.158C261.826 391.907 259.769 391.575 257.707 391.243C255.654 390.889 253.587 390.606 252.036 390.4C250.485 390.189 249.454 390.046 249.454 390.046C248.293 393.266 246.455 395.818 244.102 397.692C241.744 399.59 238.88 400.769 235.607 401.105C236.549 397.948 238.167 395.365 240.368 393.454C242.569 391.557 245.366 390.266 248.58 389.929C248.58 389.929 247.549 389.79 245.998 389.575C244.443 389.405 242.372 389.18 240.301 388.952C236.159 388.449 231.999 388.185 231.999 388.185C231.017 391.459 229.327 394.14 227.095 396.118C224.858 398.069 222.101 399.522 218.896 400.065L218.9 400.061Z" fill="#8FB23E"/>
<path d="M434.054 424.458C423.327 427.306 409.928 427.683 400.783 427.719C368.177 427.844 336.005 420.821 304.891 414.035C301.049 413.197 297.208 412.358 293.366 411.533C276.969 408.012 264.085 406.16 251.583 405.528C250.288 405.465 248.93 405.389 247.522 405.308C236.486 404.689 222.751 403.918 212.956 406.904L212.62 405.801C222.612 402.752 236.459 403.532 247.585 404.155C248.988 404.236 250.346 404.308 251.637 404.375C264.202 405.007 277.143 406.869 293.604 410.403C297.45 411.228 301.291 412.067 305.133 412.905C336.184 419.682 368.293 426.687 400.775 426.562C409.856 426.53 423.156 426.158 433.753 423.337L434.049 424.454L434.054 424.458Z" fill="#5BA860"/>
<path style="mix-blend-mode:multiply" d="M279.358 375.757C262.853 376.385 246.948 378.645 231.663 383.341C233.635 383.794 235.728 384.108 237.974 384.238C251.364 385.018 259.509 380.641 268.828 392.539C275.565 401.141 283.051 410.609 293.16 415.74C304.891 421.695 318.348 424.687 330.805 421.072C336.207 419.507 341.846 417.381 347.086 415.156C350.403 413.748 359.279 407.33 368.141 400.603C343.132 384.22 315.107 374.394 279.362 375.757H279.358Z" fill="url(#paint1_linear_1564_5549)"/>
<path d="M414.68 381.013C404.89 370.537 395.207 358.93 384.413 349.669C375.622 342.125 362.824 339.614 351.613 339.407C342.388 339.242 332.679 344.821 323.489 344.381C311.731 343.816 301.3 333.712 289.905 330.765C277.484 327.554 266.712 329.59 254.981 333.9C244.658 337.694 239.238 341.852 227.969 341.166C217.771 340.542 205.721 339.197 196.891 345.78C176.374 361.069 227.476 371.689 235.692 375.636C245.101 380.152 248.437 387.09 253.448 395.58C260.818 408.053 271.249 414.52 286.427 412.125C299.678 410.03 306.702 404.021 318.343 413.659C326.762 420.624 336.09 428.284 347.059 431.14C359.79 434.455 373.574 434.513 384.973 428.324C389.918 425.642 394.974 422.364 399.618 419.076C403.437 416.367 414.621 403.415 423.425 392.853C420.955 388.781 418.378 384.973 414.68 381.018V381.013Z" fill="#619668"/>
<g style="mix-blend-mode:multiply">
<path d="M414.68 381.013C404.89 370.537 395.207 358.93 384.413 349.669C375.622 342.125 362.824 339.614 351.613 339.407C342.388 339.242 332.679 344.821 323.489 344.381C311.731 343.816 301.3 333.712 289.905 330.765C277.484 327.554 266.712 329.59 254.981 333.9C244.658 337.694 239.238 341.852 227.969 341.166C217.771 340.542 205.721 339.197 196.891 345.78C176.374 361.069 227.476 371.689 235.692 375.636C245.101 380.152 248.437 387.09 253.448 395.58C260.818 408.053 271.249 414.52 286.427 412.125C299.678 410.03 306.702 404.021 318.343 413.659C326.762 420.624 336.09 428.284 347.059 431.14C359.79 434.455 373.574 434.513 384.973 428.324C389.918 425.642 394.974 422.364 399.618 419.076C403.437 416.367 414.621 403.415 423.425 392.853C420.955 388.781 418.378 384.973 414.68 381.018V381.013Z" fill="url(#paint2_linear_1564_5549)"/>
</g>
<path d="M412.936 389.328C402.724 384.664 393.616 381.937 384.278 380.758C368.011 378.699 354.065 379.112 340.393 382.058C328.452 384.628 317.622 386.184 306.043 379.13C303.479 377.569 300.937 375.932 298.481 374.349C290.641 369.299 283.235 364.536 274.512 361.509C259.258 356.217 244.048 356.396 227.946 356.589L227.861 356.015L227.933 355.436C244.138 355.243 259.446 355.064 274.889 360.419C283.742 363.491 291.55 368.519 299.104 373.38C301.556 374.959 304.093 376.591 306.644 378.148C317.864 384.982 328.456 383.453 340.151 380.933C353.958 377.959 368.029 377.542 384.426 379.619C393.885 380.816 403.101 383.57 413.42 388.283L412.94 389.333L412.936 389.328Z" fill="#3B8B58"/>
<path style="mix-blend-mode:multiply" d="M291.138 331.128C297.943 348.153 308.594 365.038 322.907 380.193C343.971 402.5 369.221 417.121 393.656 423.104C395.687 421.785 397.69 420.435 399.618 419.067C403.437 416.358 414.621 403.406 423.425 392.844C420.955 388.772 418.378 384.965 414.68 381.009C404.89 370.532 395.207 358.926 384.413 349.664C375.622 342.121 362.825 339.609 351.613 339.403C342.388 339.237 332.679 344.816 323.489 344.377C312.157 343.829 302.058 334.447 291.138 331.128Z" fill="url(#paint3_linear_1564_5549)"/>
<path d="M421.04 392.938C417.67 379.919 417.454 366.447 412.021 354.109C409.946 349.386 407.776 345.112 404.087 341.219C399.551 336.434 393.737 336.187 388.434 332.909C378.698 326.895 374.735 314.041 365.72 306.578C356.791 299.192 345.221 295.433 333.557 295.999C322.795 296.519 315.443 296.631 306.074 290.706C298.916 286.177 283.742 278.203 286.889 293.666C288.74 302.78 298.736 308.605 302.699 317.369C306.939 326.756 306.384 339.452 312.794 347.843C318.868 355.799 329.729 349.745 336.417 357.297C343.347 365.128 344.361 374.528 353.406 381.489C363.174 389.005 375.524 392.795 387.353 395.347C395.758 397.159 411.972 400.599 422.215 398.365C421.883 396.562 421.516 394.755 421.04 392.938Z" fill="#3E5C40"/>
<g style="mix-blend-mode:multiply">
<path d="M421.04 392.938C417.67 379.919 417.454 366.447 412.021 354.109C409.946 349.386 407.776 345.112 404.087 341.219C399.551 336.434 393.737 336.187 388.434 332.909C378.698 326.895 374.735 314.041 365.72 306.578C356.791 299.192 345.221 295.433 333.557 295.999C322.795 296.519 315.443 296.631 306.074 290.706C298.916 286.177 283.742 278.203 286.889 293.666C288.74 302.78 298.736 308.605 302.699 317.369C306.939 326.756 306.384 339.452 312.794 347.843C318.868 355.799 329.729 349.745 336.417 357.297C343.347 365.128 344.361 374.528 353.406 381.489C363.174 389.005 375.524 392.795 387.353 395.347C395.758 397.159 411.972 400.599 422.215 398.365C421.883 396.562 421.516 394.755 421.04 392.938Z" fill="url(#paint4_linear_1564_5549)"/>
</g>
<path d="M303.367 281.867C307.728 279.553 312.193 278.557 316.564 278.907C320.97 279.221 325.134 281.001 328.886 284.087C328.886 284.087 327.959 282.827 326.569 280.938C325.211 279.028 323.288 276.561 321.324 274.13C319.379 271.682 317.433 269.238 315.976 267.403C315.259 266.475 314.618 265.739 314.165 265.228C313.717 264.712 313.462 264.416 313.462 264.416C308.925 266.82 304.272 267.874 299.821 267.636C297.593 267.515 295.415 267.071 293.312 266.3C291.165 265.591 289.058 264.609 287.068 263.277C291.214 260.582 295.576 259.182 299.982 259.142C304.313 259.174 308.58 260.649 312.597 263.416C312.597 263.416 310.315 260.788 308.029 258.155C306.877 256.85 305.769 255.505 304.868 254.559C303.963 253.617 303.362 252.989 303.362 252.989C298.405 251.774 294.464 249.428 291.317 246.293C288.09 243.252 285.822 239.216 284.522 234.202C289.48 234.955 293.864 237.045 297.293 240.131C300.632 243.302 302.82 247.643 303.842 252.545C303.842 252.545 304.142 252.859 304.671 253.406C305.205 253.949 305.962 254.734 306.801 255.734C308.513 257.707 310.799 260.335 313.081 262.968C315.412 265.56 317.545 268.314 319.168 270.359C320.795 272.404 321.876 273.767 321.876 273.767C319.867 269.35 319.258 264.735 319.675 260.353C320.105 255.967 321.786 251.63 324.753 247.638C326.116 249.998 327.107 252.379 327.716 254.738C328.313 257.11 328.429 259.519 328.241 261.833C327.842 266.484 325.968 270.879 322.696 274.808C322.696 274.808 323.669 276.037 325.126 277.875C326.515 279.768 328.371 282.288 330.227 284.809C334.006 289.805 337.48 295.012 337.48 295.012C336.641 292.725 336.13 290.433 335.929 288.164C335.678 285.926 335.745 283.706 336.13 281.526C336.897 277.167 338.914 272.969 342.177 269.211C344.459 274.081 345.329 278.916 344.625 283.495C343.899 288.096 341.743 292.375 338.233 296.102C338.233 296.102 339.12 297.393 340.447 299.326C341.805 301.241 343.495 303.878 345.19 306.507C346.889 309.135 348.588 311.763 349.861 313.736C351.089 315.736 351.905 317.073 351.905 317.073C349.022 307.798 351.031 298.77 358.024 291.612C360 296.568 360.52 301.452 359.615 305.959C358.696 310.476 356.28 314.66 352.6 318.208C352.6 318.208 353.415 319.544 354.644 321.544C355.885 323.536 357.499 326.217 359.059 328.935C360.632 331.64 362.206 334.344 363.389 336.376C364.532 338.425 365.294 339.793 365.294 339.793C362.802 330.406 365.281 321.464 372.565 314.673C376.107 324.706 373.664 334.183 365.944 340.95C365.944 340.95 367.235 343.273 369.172 346.763C371.041 350.288 373.596 354.947 375.999 359.697C378.451 364.415 380.795 369.191 382.521 372.788C384.256 376.38 385.35 378.811 385.35 378.811L384.754 379.08C384.754 379.08 381.634 372.25 378.24 365.55C376.577 362.181 374.816 358.863 373.542 356.351C372.22 353.862 371.341 352.203 371.341 352.203C366.411 353.597 361.655 353.606 357.338 352.337C352.963 351.095 349.049 348.565 345.741 344.83C355.101 341.677 364.138 343.847 370.718 351.032C370.718 351.032 367.787 345.507 364.707 340.062C363.206 337.322 361.641 334.613 360.449 332.595C359.27 330.568 358.481 329.218 358.481 329.218C348.78 332.375 339.488 330.115 332.607 322.975C341.837 319.383 350.901 321.194 357.813 328.074C357.813 328.074 357.019 326.729 355.827 324.706C354.603 322.706 352.967 320.042 351.335 317.373C349.726 314.691 348.032 312.068 346.75 310.103C345.477 308.135 344.625 306.821 344.625 306.821C339.833 308.65 335.14 309.049 330.706 308.206C326.246 307.381 322.109 305.273 318.523 301.883C323.028 299.865 327.546 299.178 331.872 299.82C336.175 300.47 340.375 302.389 343.903 305.708C343.903 305.708 343.056 304.394 341.779 302.425C340.452 300.492 338.685 297.914 336.915 295.335C333.441 290.137 329.671 285.145 329.671 285.145C324.991 287.226 320.289 287.926 315.864 287.325C311.462 286.688 307.119 284.975 303.367 281.858V281.867Z" fill="#1A4128"/>
<path style="mix-blend-mode:multiply" d="M339.286 328.182C360.722 359.499 388.429 382.996 421.421 394.571C421.296 394.024 421.179 393.481 421.036 392.934C417.665 379.915 417.45 366.442 412.017 354.104C409.941 349.382 407.772 345.108 404.083 341.215C399.546 336.429 393.732 336.183 388.429 332.904C378.693 326.89 374.73 314.037 365.716 306.574C356.786 299.187 345.217 295.429 333.553 295.994C329.133 296.209 325.291 296.344 321.642 296.03C327.066 307.489 332.683 318.535 339.286 328.182Z" fill="url(#paint5_linear_1564_5549)"/>
<path d="M409.982 248.845C416.208 235.924 423.524 222.698 428.253 209.28C432.104 198.355 429.822 185.505 425.958 174.975C422.78 166.31 414.07 159.269 411.156 150.537C407.436 139.361 413.079 125.983 411.708 114.286C410.21 101.54 404.419 92.2252 396.162 82.8429C388.895 74.5818 383.059 71.0343 379.63 60.2706C376.523 50.534 373.421 38.8062 364.093 32.9489C342.428 19.3374 351.004 70.8414 350.296 79.9367C349.489 90.346 344.226 95.9655 338.13 103.711C329.169 115.093 326.91 127.162 334.633 140.455C341.375 152.057 349.516 156.439 344.742 170.782C341.294 181.151 337.529 192.623 338.829 203.884C340.34 216.958 345.27 229.838 355.159 238.234C359.445 241.875 364.326 245.41 369.073 248.553C372.978 251.141 389.093 256.891 402.115 261.281C405.015 257.505 407.633 253.724 409.982 248.845Z" fill="#619668"/>
<g style="mix-blend-mode:multiply">
<path d="M409.982 248.845C416.208 235.924 423.524 222.698 428.253 209.28C432.104 198.355 429.822 185.505 425.958 174.975C422.78 166.31 414.07 159.269 411.156 150.537C407.436 139.361 413.079 125.983 411.708 114.286C410.21 101.54 404.419 92.2252 396.162 82.8429C388.895 74.5818 383.059 71.0343 379.63 60.2706C376.523 50.534 373.421 38.8062 364.093 32.9489C342.428 19.3374 351.004 70.8414 350.296 79.9367C349.489 90.346 344.226 95.9655 338.13 103.711C329.169 115.093 326.91 127.162 334.633 140.455C341.375 152.057 349.516 156.439 344.742 170.782C341.294 181.151 337.529 192.623 338.829 203.884C340.34 216.958 345.27 229.838 355.159 238.234C359.445 241.875 364.326 245.41 369.073 248.553C372.978 251.141 389.093 256.891 402.115 261.281C405.015 257.505 407.633 253.724 409.982 248.845Z" fill="url(#paint6_linear_1564_5549)"/>
</g>
<path style="mix-blend-mode:multiply" d="M369.069 248.553C372.973 251.141 389.088 256.891 402.11 261.281C404.361 258.348 406.441 255.406 408.359 251.957C402.541 233.937 392.979 216.541 377.989 199.592C367.921 188.214 357.114 178.106 345.082 169.665C344.975 170.028 344.863 170.396 344.737 170.777C341.29 181.146 337.525 192.618 338.824 203.88C340.335 216.953 345.266 229.834 355.155 238.229C359.44 241.871 364.322 245.405 369.069 248.549V248.553Z" fill="url(#paint7_linear_1564_5549)"/>
<path d="M391.253 236.444C375.873 215.774 358.086 198.529 335.297 186.564C328.658 183.079 314.838 179.68 303.349 174.41C320.558 206.947 320.809 251.244 333.279 284.939C349.166 327.854 376.644 361.98 415.823 379.874C424.824 328.662 425.595 282.593 391.253 236.444Z" fill="#72C079"/>
<g style="mix-blend-mode:multiply">
<path d="M391.253 236.444C375.873 215.774 358.086 198.529 335.297 186.564C328.658 183.079 314.838 179.68 303.349 174.41C320.558 206.947 320.809 251.244 333.279 284.939C349.166 327.854 376.644 361.98 415.823 379.874C424.824 328.662 425.595 282.593 391.253 236.444Z" fill="url(#paint8_linear_1564_5549)"/>
</g>
<path d="M438.707 391.598C430.284 384.363 422.39 373.524 417.185 366.002C398.623 339.183 386.192 308.677 374.174 279.171C372.691 275.53 371.207 271.888 369.71 268.251C363.331 252.733 357.562 241.059 351.004 230.394C350.322 229.286 349.619 228.125 348.888 226.918C343.15 217.464 336.009 205.701 328.003 199.319L328.721 198.417C336.888 204.929 344.087 216.792 349.87 226.322C350.6 227.524 351.304 228.685 351.985 229.789C358.579 240.508 364.371 252.235 370.777 267.811C372.274 271.448 373.758 275.095 375.241 278.736C387.237 308.179 399.645 338.631 418.136 365.343C423.304 372.815 431.14 383.57 439.46 390.718L438.707 391.593V391.598Z" fill="#5BA860"/>
<path d="M401.599 250.226C402.258 239.014 401.501 229.533 399.228 220.393C395.265 204.476 389.841 191.614 382.154 179.922C375.439 169.71 370.077 160.171 372.467 146.819C372.996 143.864 373.601 140.899 374.188 138.033C376.057 128.893 377.823 120.264 377.492 111.035C376.909 94.8936 371.243 80.7708 365.245 65.8183L365.752 65.5313L366.316 65.3923C372.355 80.4389 378.052 94.6559 378.644 110.999C378.984 120.368 377.12 129.467 375.318 138.271C374.73 141.128 374.125 144.088 373.601 147.03C371.288 159.964 376.541 169.297 383.117 179.294C390.881 191.098 396.355 204.073 400.349 220.119C402.653 229.376 403.415 238.965 402.751 250.298L401.599 250.231V250.226Z" fill="#3B8B58"/>
<path d="M449.613 414.632C448.223 412.815 446.901 411.057 445.628 409.367C435.237 395.558 427.733 385.579 410.121 379.246C408.032 378.493 405.791 377.789 403.625 377.111C398.842 375.609 393.898 374.057 389.649 371.743C384.005 368.671 380.231 363.702 376.577 358.894C373.161 354.396 369.929 350.144 365.276 347.251C361.825 345.108 358.665 343.704 355.607 342.345C349.081 339.448 343.446 336.945 338.04 328.5C336.991 326.863 335.924 324.872 334.79 322.764C330.03 313.902 324.112 302.869 313.332 305.484L313.063 304.363C324.704 301.537 330.859 313.005 335.808 322.217C336.928 324.307 337.986 326.28 339.013 327.877C344.235 336.03 349.722 338.47 356.078 341.291C359.171 342.663 362.367 344.085 365.886 346.269C370.723 349.274 374.166 353.808 377.496 358.194C381.073 362.904 384.776 367.774 390.2 370.73C394.351 372.99 399.246 374.524 403.975 376.008C406.154 376.694 408.404 377.399 410.515 378.156C428.45 384.61 436.044 394.701 446.551 408.671C447.824 410.362 449.142 412.116 450.532 413.932L449.617 414.632H449.613Z" fill="#3E5C40"/>
</g>
<defs>
<linearGradient id="paint0_linear_1564_5549" x1="241.803" y1="487.007" x2="377.938" y2="370.917" gradientUnits="userSpaceOnUse">
<stop stop-color="white"/>
<stop offset="1" stop-color="#648075"/>
</linearGradient>
<linearGradient id="paint1_linear_1564_5549" x1="252.922" y1="422.85" x2="313.583" y2="384.364" gradientUnits="userSpaceOnUse">
<stop stop-color="white"/>
<stop offset="1" stop-color="#648075"/>
</linearGradient>
<linearGradient id="paint2_linear_1564_5549" x1="211.667" y1="375.672" x2="360.444" y2="383.257" gradientUnits="userSpaceOnUse">
<stop stop-color="white"/>
<stop offset="1" stop-color="#648075"/>
</linearGradient>
<linearGradient id="paint3_linear_1564_5549" x1="365.144" y1="445.88" x2="354.812" y2="338.733" gradientUnits="userSpaceOnUse">
<stop stop-color="white"/>
<stop offset="1" stop-color="#648075"/>
</linearGradient>
<linearGradient id="paint4_linear_1564_5549" x1="280.148" y1="331.165" x2="429.331" y2="354.515" gradientUnits="userSpaceOnUse">
<stop stop-color="white"/>
<stop offset="1" stop-color="#648075"/>
</linearGradient>
<linearGradient id="paint5_linear_1564_5549" x1="315.742" y1="335.407" x2="428.188" y2="353.007" gradientUnits="userSpaceOnUse">
<stop stop-color="white"/>
<stop offset="1" stop-color="#648075"/>
</linearGradient>
<linearGradient id="paint6_linear_1564_5549" x1="342.026" y1="57.7898" x2="388.772" y2="199.316" gradientUnits="userSpaceOnUse">
<stop stop-color="white"/>
<stop offset="1" stop-color="#648075"/>
</linearGradient>
<linearGradient id="paint7_linear_1564_5549" x1="336.526" y1="208.93" x2="414.121" y2="222.898" gradientUnits="userSpaceOnUse">
<stop stop-color="white"/>
<stop offset="1" stop-color="#648075"/>
</linearGradient>
<linearGradient id="paint8_linear_1564_5549" x1="281.54" y1="255.69" x2="437.949" y2="297.725" gradientUnits="userSpaceOnUse">
<stop stop-color="white"/>
<stop offset="1" stop-color="#648075"/>
</linearGradient>
<clipPath id="clip0_1564_5549">
<rect width="421" height="423" fill="white"/>
</clipPath>
</defs>
</svg>
