<svg width="393" height="401" viewBox="0 0 393 401" fill="none" xmlns="http://www.w3.org/2000/svg">
<g clip-path="url(#clip0_1564_5520)">
<path d="M-41.5096 -38.3732L-43.4519 238.291C-43.4519 238.291 0.812748 288.667 35.6255 238.844C68.5042 191.786 62.5018 145.253 108.418 121.253C154.331 97.2532 189.79 139.686 226.412 68.4094C259.811 3.39641 371.989 41.3715 377.06 -35.4468L-41.5096 -38.3732Z" fill="#BED731"/>
<path d="M109.022 34.829C132.785 36.3244 155.564 34.0693 177.61 25.1363C184.034 22.533 194.682 14.8116 205.264 9.85559C172.045 2.56732 140.67 -23.7123 109.469 -35.0311C69.7258 -49.45 24.9508 -41.0668 -11.0698 -24.1139C19.658 12.8195 55.9782 31.499 109.026 34.8291L109.022 34.829Z" fill="#72C079"/>
<g style="mix-blend-mode:multiply">
<path d="M109.022 34.829C132.785 36.3244 155.564 34.0693 177.61 25.1363C184.034 22.533 194.682 14.8116 205.264 9.85559C172.045 2.56732 140.67 -23.7123 109.469 -35.0311C69.7258 -49.45 24.9508 -41.0668 -11.0698 -24.1139C19.658 12.8195 55.9782 31.499 109.026 34.8291L109.022 34.829Z" fill="url(#paint0_linear_1564_5520)"/>
</g>
<path d="M166.875 18.1121C165.906 21.0003 164.333 23.3389 162.231 25.0399C160.127 26.771 157.511 27.7441 154.524 27.9555C154.524 27.9555 155.474 28.1241 156.895 28.379C158.312 28.6554 160.221 28.9411 162.127 29.1963C164.037 29.4647 165.942 29.7329 167.375 29.932C168.089 30.0445 168.688 30.0965 169.11 30.1378C169.528 30.179 169.769 30.2007 169.769 30.2007C170.777 27.1972 172.41 24.7527 174.502 22.9692C175.546 22.0774 176.71 21.3499 177.979 20.8036C179.242 20.2095 180.598 19.7528 182.052 19.5029C181.343 22.4698 179.986 24.946 178.032 26.834C176.081 28.6615 173.549 29.8106 170.583 30.2822C170.583 30.2822 172.72 30.4897 174.857 30.6928C175.926 30.7879 176.993 30.9175 177.796 30.9553C178.599 30.9932 179.134 31.017 179.134 31.017C181.867 29.4557 184.622 28.8294 187.361 28.8943C190.094 28.8813 192.821 29.7243 195.531 31.4099C192.994 33.1816 190.15 34.1074 187.307 34.1857C184.466 34.1862 181.649 33.1756 179.111 31.4183C179.111 31.4183 178.843 31.4086 178.373 31.3871C177.902 31.37 177.233 31.3414 176.432 31.2517C174.829 31.0983 172.692 30.8908 170.555 30.6877C168.413 30.519 166.293 30.1954 164.697 29.9731C163.101 29.7507 162.039 29.5996 162.039 29.5996C164.813 30.7211 167.043 32.5234 168.716 34.66C170.385 36.8051 171.473 39.4567 171.842 42.5017C170.234 42.028 168.779 41.3827 167.506 40.5882C166.234 39.7809 165.156 38.7557 164.258 37.6419C162.464 35.3927 161.436 32.6352 161.23 29.4881C161.23 29.4881 160.275 29.3539 158.843 29.1461C157.417 28.891 155.518 28.5538 153.62 28.2167C149.812 27.5895 146.047 26.7348 146.047 26.7348C147.394 27.4021 148.592 28.2068 149.648 29.1361C150.709 30.0309 151.623 31.0502 152.377 32.189C153.886 34.4624 154.763 37.1971 154.898 40.2595C151.812 39.0532 149.37 37.2605 147.739 34.9135C146.113 32.5494 145.26 29.7204 145.245 26.5629C145.245 26.5629 144.301 26.3642 142.885 26.0619C141.465 25.7811 139.592 25.3238 137.715 24.8663C135.838 24.4131 133.965 23.9602 132.559 23.6193C131.163 23.2442 130.23 22.994 130.23 22.994C135.455 25.9128 138.39 30.8025 138.304 36.9705C135.314 35.5948 133.012 33.6342 131.504 31.2354C129.996 28.8237 129.302 25.9313 129.442 22.7838C129.442 22.7838 128.509 22.5336 127.113 22.1585C125.712 21.7962 123.85 21.2831 122.003 20.7315C120.15 20.1928 118.298 19.6497 116.912 19.2447C115.531 18.8139 114.612 18.5254 114.612 18.5254C119.712 21.6645 122.399 26.7095 122.025 32.8368C116.185 29.8567 113.255 24.5866 113.834 18.2809C113.834 18.2809 112.27 17.7915 109.927 17.0533C107.595 16.2723 104.475 15.2766 101.385 14.1739C98.2854 13.1055 95.2096 11.9687 92.9154 11.0939C90.6166 10.2276 89.0958 9.60574 89.0958 9.60574L89.2476 9.23503C89.2476 9.23503 93.5428 10.961 97.9004 12.5163C100.072 13.3175 102.267 14.0503 103.907 14.6289C105.551 15.1817 106.649 15.5459 106.649 15.5459C108.261 12.8282 110.384 10.8036 112.851 9.53974C115.332 8.23746 118.157 7.70448 121.222 7.97159C118.376 13.356 113.412 16.2243 107.426 15.8077C107.426 15.8077 111.083 17.0305 114.768 18.1591C116.606 18.7449 118.454 19.2921 119.84 19.6885C121.226 20.0935 122.155 20.3608 122.155 20.3608C125.153 14.8306 130.262 11.894 136.37 12.1594C133.769 17.6867 128.946 20.7245 122.938 20.5882C122.938 20.5882 123.862 20.851 125.253 21.2475C126.648 21.6226 128.511 22.1185 130.373 22.6187C132.231 23.136 134.104 23.589 135.51 23.9212C136.915 24.2621 137.85 24.4863 137.85 24.4863C139.216 21.6342 141.145 19.4599 143.483 17.9578C145.825 16.4299 148.57 15.6172 151.614 15.6111C150.457 18.4276 148.728 20.6525 146.523 22.2026C144.323 23.74 141.63 24.667 138.647 24.6796C138.647 24.6796 139.586 24.904 140.987 25.2447C142.398 25.5469 144.286 25.9485 146.169 26.35C149.93 27.196 153.733 27.8273 153.733 27.8273C154.942 24.9089 156.747 22.6003 158.98 20.9906C161.216 19.407 163.889 18.3279 166.888 18.1256L166.875 18.1121Z" fill="#3E5C40"/>
<path d="M-28.7006 -24.3486C-18.5682 -25.9695 -6.21459 -25.0662 2.19928 -24.2499C32.1924 -21.33 61.1266 -11.8796 89.1038 -2.74076C92.556 -1.61193 96.0126 -0.482939 99.4696 0.633091C114.221 5.3989 125.896 8.30143 137.333 10.0406C138.52 10.2222 139.762 10.4187 141.047 10.6211C151.136 12.2161 163.697 14.2038 172.981 12.3704L173.189 13.4159C163.718 15.29 151.059 13.2858 140.884 11.6747C139.598 11.4723 138.36 11.2759 137.178 11.0945C125.685 9.34463 113.954 6.43142 99.1474 1.6463C95.6904 0.530267 92.2338 -0.598721 88.7773 -1.72771C60.8513 -10.8474 31.9769 -20.2784 2.10004 -23.1854C-6.25337 -23.9994 -18.5165 -24.8951 -28.5272 -23.2914L-28.6964 -24.3441L-28.7006 -24.3486Z" fill="#5BA860"/>
<path style="mix-blend-mode:multiply" d="M109.022 34.8289C124.257 35.7851 139.09 35.1914 153.588 32.2935C151.816 31.6928 149.922 31.2132 147.868 30.8833C135.626 28.9202 127.73 32.1836 120.265 20.3785C114.868 11.8445 108.868 2.44093 100.046 -3.21636C89.8094 -9.78137 77.7155 -13.7846 65.9249 -11.6229C60.8108 -10.6845 55.4282 -9.25847 50.404 -7.69836C47.2207 -6.71135 38.4631 -1.64138 29.6905 3.72211C51.1635 21.1136 76.0232 32.7554 109.017 34.8287L109.022 34.8289Z" fill="url(#paint1_linear_1564_5520)"/>
<path d="M-14.9269 17.4002C-6.9014 27.9456 0.922661 39.5129 9.98834 49.0366C17.3674 56.7907 28.9046 60.2893 39.1969 61.5242C47.6641 62.537 57.1131 58.3095 65.5194 59.5709C76.2778 61.1859 84.9319 71.4471 95.1363 75.2173C106.258 79.3235 116.354 78.4582 127.544 75.5827C137.389 73.0562 142.759 69.7356 153.061 71.4205C162.378 72.9399 173.334 75.3017 182.072 70.071C202.358 57.9214 156.358 43.4048 149.168 39.0133C140.937 33.983 138.517 27.2957 134.693 19.0265C129.078 6.8735 120.086 -0.0441044 105.907 0.746333C93.5303 1.43796 86.5093 6.30728 76.7022 -3.63257C69.6094 -10.8184 61.7432 -18.7287 51.9234 -22.3768C40.5253 -26.6098 27.8545 -27.9441 16.7956 -23.3168C12.0016 -21.3115 7.04545 -18.7716 2.46768 -16.1746C-1.29773 -14.0411 -12.7867 -3.17177 -21.8648 5.71811C-19.9687 9.69215 -17.956 13.4326 -14.9231 17.4133L-14.9269 17.4002Z" fill="#619668"/>
<g style="mix-blend-mode:multiply">
<path d="M-14.9269 17.4002C-6.9014 27.9456 0.922661 39.5129 9.98834 49.0366C17.3674 56.7907 28.9046 60.2893 39.1969 61.5242C47.6641 62.537 57.1131 58.3095 65.5194 59.5709C76.2778 61.1859 84.9319 71.4471 95.1363 75.2173C106.258 79.3235 116.354 78.4582 127.544 75.5827C137.389 73.0562 142.759 69.7356 153.061 71.4205C162.378 72.9399 173.334 75.3017 182.072 70.071C202.358 57.9214 156.358 43.4048 149.168 39.0133C140.937 33.983 138.517 27.2957 134.693 19.0265C129.078 6.8735 120.086 -0.0441044 105.907 0.746333C93.5303 1.43796 86.5093 6.30728 76.7022 -3.63257C69.6094 -10.8184 61.7432 -18.7287 51.9234 -22.3768C40.5253 -26.6098 27.8545 -27.9441 16.7956 -23.3168C12.0016 -21.3115 7.04545 -18.7716 2.46768 -16.1746C-1.29773 -14.0411 -12.7867 -3.17177 -21.8648 5.71811C-19.9687 9.69215 -17.956 13.4326 -14.9231 17.4133L-14.9269 17.4002Z" fill="url(#paint2_linear_1564_5520)"/>
</g>
<path d="M-12.5492 9.91414C-3.59144 15.1526 4.527 18.5052 13.0075 20.4613C27.7732 23.8697 40.6365 24.7872 53.4859 23.3516C64.7073 22.099 74.809 21.6793 84.802 29.243C87.0153 30.915 89.2 32.6594 91.3135 34.3406C98.053 39.7103 104.418 44.7853 112.161 48.3794C125.698 54.6623 139.699 55.9152 154.523 57.237L154.547 57.7741L154.428 58.2974C139.509 56.9635 125.418 55.7073 111.71 49.3447C103.853 45.6988 97.1435 40.3475 90.6476 35.177C88.5384 33.4959 86.3577 31.7603 84.1572 30.0932C74.4755 22.7656 64.5901 23.1845 53.603 24.4111C40.6321 25.8595 27.6524 24.9335 12.7666 21.4991C4.17891 19.5175 -4.03758 16.1267 -13.0885 10.833L-12.5492 9.91414Z" fill="#3B8B58"/>
<path style="mix-blend-mode:multiply" d="M94.0374 74.762C89.3638 58.4744 81.1402 41.9626 69.3909 26.6978C52.0932 4.22537 30.2378 -11.5669 8.32419 -19.3393C6.33288 -18.3176 4.36621 -17.2604 2.468 -16.1834C-1.29741 -14.0499 -12.7864 -3.18056 -21.8645 5.70932C-19.9684 9.68335 -17.9557 13.4238 -14.9227 17.4045C-6.89723 27.9499 0.926824 39.5172 9.9925 49.0409C17.3716 56.7951 28.9088 60.2937 39.2011 61.5285C47.6683 62.5413 57.1173 58.3138 65.5236 59.5752C75.8949 61.133 84.3063 70.6977 94.0373 74.7664L94.0374 74.762Z" fill="url(#paint3_linear_1564_5520)"/>
<path d="M-19.6645 5.84561C-17.7766 18.1312 -18.8329 30.5345 -14.9837 42.3854C-13.5143 46.9191 -11.9179 51.0509 -8.88728 54.9754C-5.15851 59.7945 0.161393 60.5674 4.7333 64.0766C13.1287 70.5141 15.5736 82.6988 23.1709 90.396C30.6973 98.0215 40.9865 102.552 51.7614 103.116C61.7078 103.638 68.4786 104.221 76.5411 110.539C82.7036 115.369 95.9134 124.113 94.4609 109.603C93.6045 101.053 84.9529 94.7659 82.1291 86.3428C79.1024 77.3154 80.796 65.6964 75.681 57.3845C70.8358 49.5019 60.2855 54.057 54.8363 46.4941C49.1941 38.6517 49.1357 29.914 41.4657 22.6725C33.181 14.8552 22.1822 10.2215 11.5381 6.77262C3.97484 4.32235 -10.6154 -0.346799 -20.2359 0.752109C-20.0984 2.43937 -19.9266 4.13652 -19.6604 5.85008L-19.6645 5.84561Z" fill="#3E5C40"/>
<g style="mix-blend-mode:multiply">
<path d="M-19.6645 5.84561C-17.7766 18.1312 -18.8329 30.5345 -14.9837 42.3854C-13.5143 46.9191 -11.9179 51.0509 -8.88728 54.9754C-5.15851 59.7945 0.161393 60.5674 4.7333 64.0766C13.1287 70.5141 15.5736 82.6988 23.1709 90.396C30.6973 98.0215 40.9865 102.552 51.7614 103.116C61.7078 103.638 68.4786 104.221 76.5411 110.539C82.7036 115.369 95.9134 124.113 94.4609 109.603C93.6045 101.053 84.9529 94.7659 82.1291 86.3428C79.1024 77.3154 80.796 65.6964 75.681 57.3845C70.8358 49.5019 60.2855 54.057 54.8363 46.4941C49.1941 38.6517 49.1357 29.914 41.4657 22.6725C33.181 14.8552 22.1822 10.2215 11.5381 6.77262C3.97484 4.32235 -10.6154 -0.346799 -20.2359 0.752109C-20.0984 2.43937 -19.9266 4.13652 -19.6604 5.85008L-19.6645 5.84561Z" fill="url(#paint4_linear_1564_5520)"/>
</g>
<path d="M78.2082 118.911C73.9821 120.634 69.7834 121.13 65.7978 120.402C61.7722 119.702 58.1104 117.679 54.9491 114.493C54.9491 114.493 55.6822 115.735 56.786 117.6C57.8545 119.486 59.3955 121.929 60.9764 124.348C62.5352 126.779 64.0983 129.21 65.2687 131.03C65.8405 131.95 66.3627 132.687 66.7333 133.198C67.0993 133.712 67.3047 134.01 67.3047 134.01C71.7018 132.219 76.0791 131.686 80.1504 132.319C82.1882 132.635 84.1503 133.247 86.011 134.154C87.9212 135.006 89.7663 136.102 91.4703 137.513C87.4081 139.606 83.2646 140.484 79.2098 140.112C75.2308 139.678 71.4467 137.927 68.012 135.008C68.012 135.008 69.8661 137.64 71.7204 140.268C72.6587 141.573 73.5523 142.916 74.2916 143.869C75.0353 144.817 75.5311 145.449 75.5311 145.449C79.9786 147.029 83.3845 149.553 85.9841 152.727C88.6687 155.826 90.3766 159.745 91.1081 164.477C86.6191 163.323 82.7825 160.996 79.9143 157.834C77.1394 154.606 75.5279 150.413 75.0467 145.812C75.0467 145.812 74.7988 145.496 74.3651 144.939C73.9224 144.391 73.3027 143.599 72.6256 142.601C71.2361 140.627 69.3775 137.999 67.5234 135.367C65.6205 132.768 63.9169 130.038 62.6117 128.005C61.3064 125.973 60.4391 124.618 60.4391 124.618C61.8757 128.865 62.009 133.164 61.2155 137.153C60.4131 141.145 58.4624 144.975 55.3602 148.37C54.3282 146.075 53.6373 143.792 53.2946 141.566C52.9694 139.331 53.085 137.104 53.4687 134.994C54.2712 130.759 56.4007 126.888 59.7721 123.582C59.7721 123.582 58.9949 122.364 57.8249 120.536C56.7213 118.666 55.251 116.178 53.7766 113.685C50.7657 108.741 48.0549 103.63 48.0549 103.63C48.6156 105.809 48.8701 107.963 48.8455 110.068C48.8692 112.149 48.5963 114.185 48.0448 116.154C46.9332 120.092 44.69 123.76 41.3372 126.912C39.692 122.22 39.342 117.697 40.4137 113.55C41.5119 109.386 43.8914 105.654 47.4672 102.554C47.4672 102.554 46.7696 101.287 45.7278 99.381C44.6552 97.4911 43.3481 94.9137 42.0324 92.336C40.7122 89.7624 39.3966 87.1847 38.4075 85.2546C37.4669 83.3003 36.8398 81.9974 36.8398 81.9974C38.6298 90.7938 35.9397 98.904 28.8455 104.839C27.4874 100.097 27.4622 95.5599 28.7165 91.5015C29.9841 87.4349 32.5932 83.8107 36.3093 80.8926C36.3093 80.8926 35.6823 79.5898 34.7417 77.6355C33.7878 75.6893 32.5471 73.0711 31.3721 70.4293C30.1751 67.7953 28.9825 65.1616 28.0859 63.1872C27.2244 61.1969 26.6544 59.8701 26.6544 59.8701C28.0744 68.7352 24.9608 76.7219 17.6335 82.2893C15.3089 72.7383 18.4362 64.2548 26.1679 58.7453C26.1679 58.7453 25.1994 56.4873 23.7445 53.1002C22.3555 49.6851 20.4362 45.161 18.6704 40.5733C16.8564 36.0055 15.1433 31.3981 13.8902 27.9318C12.6283 24.4695 11.8486 22.1318 11.8486 22.1318L12.4219 21.9408C12.4219 21.9408 14.6561 28.5088 17.1529 34.987C18.3662 38.24 19.6804 41.4533 20.6211 43.879C21.6057 46.289 22.2606 47.8956 22.2606 47.8956C26.9253 47.0706 31.2977 47.5064 35.149 49.0735C39.0573 50.6211 42.4181 53.3121 45.1138 57.0557C36.2117 59.0846 28.1048 56.247 22.7253 49.0283C22.7253 49.0283 24.9043 54.3792 27.2324 59.6706C28.3591 62.3323 29.5474 64.9659 30.453 66.9319C31.3496 68.9062 31.9503 70.2211 31.9503 70.2211C41.1627 68.2208 49.4993 71.162 55.1645 78.3694C46.3425 80.812 38.176 78.3052 32.4588 71.338C32.4588 71.338 33.0639 72.6488 33.9694 74.6191C34.91 76.5734 36.1643 79.1748 37.4186 81.7763C38.6465 84.3897 39.9623 86.9631 40.9602 88.8892C41.9492 90.8194 42.6073 92.1017 42.6073 92.1017C47.1831 90.867 51.5386 90.9345 55.5334 92.122C59.5591 93.2933 63.1668 95.617 66.1453 99.0726C61.8131 100.506 57.5943 100.721 53.6789 99.7264C49.7809 98.7283 46.0979 96.5749 43.1643 93.1902C43.1643 93.1902 43.8223 94.4769 44.8115 96.4027C45.8491 98.3043 47.2356 100.837 48.6219 103.374C51.3331 108.476 54.3355 113.416 54.3355 113.416C58.8337 111.936 63.2207 111.732 67.2322 112.7C71.221 113.697 75.0531 115.674 78.2133 118.89L78.2082 118.911Z" fill="#527E57"/>
<path style="mix-blend-mode:multiply" d="M49.4891 72.9864C32.6882 42.1987 9.3956 18.0163 -19.8637 4.30736C-19.8002 4.81996 -19.741 5.33242 -19.6602 5.84565C-17.7723 18.1312 -18.8286 30.5346 -14.9794 42.3855C-13.51 46.9192 -11.9136 51.051 -8.88296 54.9754C-5.15419 59.7945 0.165722 60.5675 4.73763 64.0766C13.133 70.5141 15.5779 82.6989 23.1752 90.3961C30.7016 98.0215 40.9908 102.552 51.7658 103.116C55.8522 103.33 59.3976 103.563 62.7211 104.189C58.7992 93.1488 54.661 82.468 49.4889 72.9908L49.4891 72.9864Z" fill="url(#paint5_linear_1564_5520)"/>
<path d="M-22.902 139.348C-29.8282 150.648 -37.7855 162.125 -43.3845 174.022C-47.9434 183.708 -47.0361 195.733 -44.4657 205.777C-42.3494 214.04 -34.9921 221.322 -33.128 229.624C-30.7429 240.245 -37.1806 252.021 -37.0056 262.903C-36.8143 274.764 -32.3548 283.861 -25.6322 293.26C-19.7203 301.532 -14.6836 305.339 -12.5301 315.55C-10.5791 324.793 -8.81981 335.859 -0.785318 342.114C17.8735 356.644 14.7778 308.495 16.2727 300.198C17.9842 290.703 23.3465 286.029 29.6722 279.473C38.9717 269.843 42.1691 258.958 36.3059 246.018C31.187 234.722 24.1107 229.937 29.8312 217.197C33.9664 207.984 38.4963 197.787 38.3454 187.312C38.1738 175.15 34.8337 162.85 26.5228 154.21C22.9193 150.464 18.7609 146.758 14.6884 143.427C11.338 140.684 -2.94606 133.899 -14.5104 128.648C-17.5278 131.85 -20.287 135.084 -22.902 139.348Z" fill="#619668"/>
<g style="mix-blend-mode:multiply">
<path d="M-22.902 139.348C-29.8282 150.648 -37.7855 162.125 -43.3845 174.022C-47.9434 183.708 -47.0361 195.733 -44.4657 205.777C-42.3494 214.04 -34.9921 221.322 -33.128 229.624C-30.7429 240.245 -37.1806 252.021 -37.0056 262.903C-36.8143 274.764 -32.3548 283.861 -25.6322 293.26C-19.7203 301.532 -14.6836 305.339 -12.5301 315.55C-10.5791 324.793 -8.81981 335.859 -0.785318 342.114C17.8735 356.644 14.7778 308.495 16.2727 300.198C17.9842 290.703 23.3465 286.029 29.6722 279.473C38.9717 269.843 42.1691 258.958 36.3059 246.018C31.187 234.722 24.1107 229.937 29.8312 217.197C33.9664 207.984 38.4963 197.787 38.3454 187.312C38.1738 175.15 34.8337 162.85 26.5228 154.21C22.9193 150.464 18.7609 146.758 14.6884 143.427C11.338 140.684 -2.94606 133.899 -14.5104 128.648C-17.5278 131.85 -20.287 135.084 -22.902 139.348Z" fill="url(#paint6_linear_1564_5520)"/>
</g>
<path d="M22.3827 202.196C17.958 203.32 13.7329 203.231 9.8882 201.958C5.99933 200.71 2.64931 198.197 -0.0389131 194.605C-0.0389131 194.605 0.517816 195.939 1.34875 197.937C2.14884 199.951 3.33711 202.585 4.56503 205.199C5.77537 207.82 6.98555 210.446 7.89114 212.412C8.33075 213.401 8.74689 214.203 9.03782 214.763C9.32875 215.323 9.4943 215.644 9.4943 215.644C14.0978 214.48 18.5048 214.558 22.4477 215.748C24.4191 216.343 26.2809 217.219 27.9985 218.376C29.7697 219.482 31.4458 220.828 32.9429 222.461C28.6293 223.973 24.4033 224.269 20.4423 223.338C16.561 222.358 13.0548 220.098 10.0555 216.737C10.0555 216.737 11.5295 219.597 13.0036 222.458C13.7516 223.882 14.4511 225.334 15.053 226.377C15.6593 227.419 16.0619 228.117 16.0619 228.117C20.2455 230.298 23.272 233.266 25.4099 236.773C27.6412 240.21 28.7925 244.335 28.8606 249.12C24.5712 247.355 21.0946 244.517 18.6936 240.992C16.3897 237.414 15.3772 233.035 15.5366 228.414C15.5366 228.414 15.3332 228.065 14.9792 227.455C14.6208 226.85 14.112 225.979 13.5764 224.896C12.4698 222.75 10.996 219.885 9.52193 217.025C7.99515 214.189 6.68833 211.248 5.67433 209.053C4.66448 206.863 3.99141 205.398 3.99141 205.398C4.82555 209.805 4.36321 214.078 3.02588 217.922C1.67991 221.765 -0.782915 225.291 -4.32217 228.219C-5.02993 225.806 -5.39385 223.449 -5.42429 221.195C-5.4373 218.937 -5.01611 216.747 -4.34105 214.709C-2.96038 210.625 -0.315592 207.088 3.48296 204.281C3.48296 204.281 2.87795 202.966 1.97699 200.992C1.14189 198.989 0.028428 196.32 -1.08503 193.65C-3.38214 188.338 -5.35904 182.899 -5.35904 182.899C-5.10746 185.135 -5.15175 187.305 -5.46523 189.386C-5.73043 191.448 -6.27793 193.426 -7.10262 195.299C-8.74768 199.045 -11.4756 202.371 -15.2341 205.028C-16.2157 200.157 -15.9385 195.627 -14.2986 191.664C-12.6367 187.694 -9.76024 184.326 -5.79284 181.75C-5.79284 181.75 -6.30576 180.4 -7.075 178.369C-7.87492 176.351 -8.81301 173.614 -9.75989 170.881C-10.7111 168.148 -11.658 165.415 -12.3703 163.365C-13.0302 161.3 -13.4729 159.922 -13.4729 159.922C-12.9167 168.881 -16.7016 176.545 -24.5492 181.436C-25.2363 176.554 -24.6318 172.057 -22.8317 168.209C-21.0142 164.357 -17.931 161.13 -13.8455 158.753C-13.8455 158.753 -14.2882 157.375 -14.9481 155.31C-15.6254 153.248 -16.4891 150.488 -17.2917 147.709C-18.1116 144.933 -18.9317 142.161 -19.5478 140.08C-20.1245 137.988 -20.5062 136.594 -20.5062 136.594C-20.3267 145.57 -24.5114 153.051 -32.5391 157.546C-33.5192 147.763 -29.2476 139.792 -20.8306 135.411C-20.8306 135.411 -21.4794 133.039 -22.4525 129.483C-23.3558 125.909 -24.6315 121.161 -25.7459 116.377C-26.9126 111.603 -27.9702 106.803 -28.7296 103.195C-29.4978 99.5908 -29.9502 97.1698 -29.9502 97.1698L-29.3583 97.0616C-29.3583 97.0616 -28.054 103.877 -26.4754 110.637C-25.7209 114.025 -24.8705 117.39 -24.271 119.925C-23.632 122.447 -23.2046 124.128 -23.2046 124.128C-18.473 123.958 -14.2003 124.996 -10.6013 127.082C-6.94567 129.156 -3.98559 132.287 -1.83386 136.365C-10.9325 137.141 -18.5673 133.21 -22.8976 125.315C-22.8976 125.315 -21.4801 130.92 -19.9053 136.478C-19.1551 139.269 -18.3481 142.044 -17.7188 144.117C-17.1025 146.193 -16.6903 147.579 -16.6903 147.579C-7.28731 146.875 0.558788 150.939 5.17344 158.861C-3.90159 160.058 -11.643 156.442 -16.3397 148.755C-16.3397 148.755 -15.923 150.137 -15.2938 152.214C-14.6339 154.279 -13.7526 157.031 -12.8711 159.779C-12.016 162.539 -11.069 165.268 -10.3478 167.314C-9.63537 169.359 -9.16193 170.726 -9.16193 170.726C-4.45826 170.135 -0.154974 170.807 3.63859 172.536C7.46285 174.253 10.7158 177.057 13.1879 180.888C8.70054 181.711 4.49451 181.337 0.749699 179.813C-2.97337 178.285 -6.32299 175.642 -8.76315 171.886C-8.76315 171.886 -8.28971 173.253 -7.57723 175.298C-6.81216 177.324 -5.79062 180.025 -4.76493 182.73C-2.7834 188.161 -0.494771 193.468 -0.494771 193.468C4.16619 192.625 8.53967 193.031 12.3801 194.542C16.1892 196.081 19.7173 198.571 22.4002 202.193L22.3827 202.196Z" fill="#527E57"/>
<path style="mix-blend-mode:multiply" d="M14.6927 143.427C11.3424 140.685 -2.94175 133.899 -14.5061 128.648C-16.849 131.136 -19.0371 133.647 -21.1216 136.637C-17.4463 153.744 -10.2738 170.629 1.93628 187.606C10.1339 199.005 19.1325 209.305 29.4106 218.18C29.5435 217.857 29.6808 217.529 29.8314 217.192C33.9666 207.98 38.4964 197.783 38.3456 187.308C38.1739 175.145 34.8339 162.846 26.5229 154.206C22.9194 150.46 18.7611 146.754 14.6885 143.423L14.6927 143.427Z" fill="url(#paint7_linear_1564_5520)"/>
<path d="M-6.83439 152.491C5.38826 172.928 20.1384 190.438 39.9812 203.558C45.7608 207.384 58.1556 211.792 68.2301 217.706C55.4332 186.191 59.3232 145.439 50.989 113.303C40.3721 72.3652 18.2769 38.4356 -16.085 18.3353C-29.1283 64.5793 -34.1201 106.861 -6.83424 152.487L-6.83439 152.491Z" fill="#72C079"/>
<g style="mix-blend-mode:multiply">
<path d="M-6.83439 152.491C5.38826 172.928 20.1384 190.438 39.9812 203.558C45.7608 207.384 58.1556 211.792 68.2301 217.706C55.4332 186.191 59.3232 145.439 50.989 113.303C40.3721 72.3652 18.2769 38.4356 -16.085 18.3353C-29.1283 64.5793 -34.1201 106.861 -6.83424 152.487L-6.83439 152.491Z" fill="url(#paint8_linear_1564_5520)"/>
</g>
<path d="M-36.0351 5.43202C-28.9644 12.8679 -22.7126 23.565 -18.6238 30.966C-4.0494 57.3526 4.54273 86.5574 12.8499 114.801C13.8731 118.289 14.9007 121.773 15.937 125.257C20.3599 140.117 24.5804 151.389 29.6188 161.804C30.1417 162.883 30.684 164.018 31.2423 165.193C35.6366 174.417 41.1119 185.899 47.8796 192.511L47.1342 193.275C40.2286 186.529 34.7137 174.95 30.2788 165.651C29.7206 164.476 29.178 163.345 28.6552 162.267C23.5884 151.799 19.3524 140.478 14.91 125.561C13.8737 122.077 12.8462 118.589 11.8187 115.1C3.52675 86.914 -5.05016 57.7659 -19.5677 31.4809C-23.6239 24.133 -29.8308 13.511 -36.8185 6.16898L-36.0437 5.43171L-36.0351 5.43202Z" fill="#5BA860"/>
<path d="M-15.0674 138.855C-16.7154 149.1 -16.9051 157.885 -15.662 166.502C-13.5011 181.504 -9.70819 193.833 -3.72651 205.299C1.49526 215.31 5.54201 224.582 2.099 236.635C1.33624 239.301 0.504247 241.97 -0.303021 244.552C-2.87194 252.779 -5.29901 260.553 -5.8508 269.07C-6.81604 283.963 -2.91919 297.476 1.20398 311.781L0.711919 311.996L0.181709 312.072C-3.96838 297.676 -7.888 284.075 -6.91169 268.997C-6.35087 260.351 -3.79183 252.158 -1.3161 244.234C-0.51346 241.66 0.318378 238.996 1.07635 236.342C4.40623 224.666 0.442926 215.596 -4.66965 205.792C-10.7078 194.216 -14.5359 181.783 -16.7138 166.654C-17.9702 157.929 -17.781 149.04 -16.1161 138.683L-15.063 138.851L-15.0674 138.855Z" fill="#3B8B58"/>
<path d="M-43.9225 -16.7589C-42.812 -14.9584 -41.764 -13.2207 -40.7485 -11.5448C-32.4775 2.11888 -26.5071 11.9927 -10.8987 19.4537C-9.04587 20.3384 -7.05363 21.1936 -5.12521 22.0205C-0.868167 23.8446 3.5378 25.7346 7.22906 28.256C12.1311 31.6041 15.1427 36.5269 18.0522 41.2859C20.7783 45.7399 23.3489 49.9504 27.361 53.0413C30.3343 55.3333 33.1128 56.9177 35.7938 58.4509C41.5244 61.7211 46.4713 64.5476 50.6627 72.8129C51.4736 74.4122 52.2723 76.344 53.1188 78.3901C56.6714 86.9824 61.086 97.6733 71.2406 96.2738L71.3838 97.3299C60.4166 98.8425 55.8228 87.73 52.1311 78.7996C51.2925 76.7755 50.5061 74.8614 49.7113 73.2972C45.6652 65.314 40.8453 62.5613 35.2671 59.3788C32.5523 57.8271 29.7442 56.2243 26.7077 53.8868C22.5401 50.6734 19.7937 46.1841 17.137 41.8451C14.2844 37.1833 11.3339 32.3622 6.62199 29.1378C3.01519 26.6713 -1.33974 24.8048 -5.54992 22.9997C-7.49113 22.168 -9.49185 21.3082 -11.3659 20.414C-27.2546 12.8132 -33.2943 2.82435 -41.6591 -10.9941C-42.6747 -12.67 -43.7228 -14.4034 -44.8291 -16.1994L-43.9225 -16.7589Z" fill="#3E5C40"/>
</g>
<defs>
<linearGradient id="paint0_linear_1564_5520" x1="162.485" y1="-52.1282" x2="32.0826" y2="38.0992" gradientUnits="userSpaceOnUse">
<stop stop-color="white"/>
<stop offset="1" stop-color="#648075"/>
</linearGradient>
<linearGradient id="paint1_linear_1564_5520" x1="137.51" y1="-5.37611" x2="78.1546" y2="24.381" gradientUnits="userSpaceOnUse">
<stop stop-color="white"/>
<stop offset="1" stop-color="#648075"/>
</linearGradient>
<linearGradient id="paint2_linear_1564_5520" x1="171.391" y1="40.8469" x2="35.2801" y2="20.0374" gradientUnits="userSpaceOnUse">
<stop stop-color="white"/>
<stop offset="1" stop-color="#648075"/>
</linearGradient>
<linearGradient id="paint3_linear_1564_5520" x1="36.1509" y1="-37.7877" x2="35.6681" y2="61.6807" gradientUnits="userSpaceOnUse">
<stop stop-color="white"/>
<stop offset="1" stop-color="#648075"/>
</linearGradient>
<linearGradient id="paint4_linear_1564_5520" x1="104.609" y1="75.8594" x2="-30.4096" y2="40.5159" gradientUnits="userSpaceOnUse">
<stop stop-color="white"/>
<stop offset="1" stop-color="#648075"/>
</linearGradient>
<linearGradient id="paint5_linear_1564_5520" x1="72.2727" y1="68.646" x2="-29.4957" y2="42.0062" gradientUnits="userSpaceOnUse">
<stop stop-color="white"/>
<stop offset="1" stop-color="#648075"/>
</linearGradient>
<linearGradient id="paint6_linear_1564_5520" x1="22.292" y1="321.119" x2="-7.51781" y2="186.66" gradientUnits="userSpaceOnUse">
<stop stop-color="white"/>
<stop offset="1" stop-color="#648075"/>
</linearGradient>
<linearGradient id="paint7_linear_1564_5520" x1="41.3929" y1="182.686" x2="-28.6543" y2="162.628" gradientUnits="userSpaceOnUse">
<stop stop-color="white"/>
<stop offset="1" stop-color="#648075"/>
</linearGradient>
<linearGradient id="paint8_linear_1564_5520" x1="96.2538" y1="144.834" x2="-43.6573" y2="91.6091" gradientUnits="userSpaceOnUse">
<stop stop-color="white"/>
<stop offset="1" stop-color="#648075"/>
</linearGradient>
<clipPath id="clip0_1564_5520">
<rect width="427" height="429" fill="white" transform="translate(393 401) rotate(-180)"/>
</clipPath>
</defs>
</svg>
